<?xml version="1.0" encoding="UTF-8"?>
<svg width="512" height="512" viewBox="0 0 512 512" fill="none" xmlns="http://www.w3.org/2000/svg">
  <rect width="512" height="512" fill="#4F46E5"/>
  <path d="M256 128C209.6 128 172 165.6 172 212C172 258.4 209.6 296 256 296C302.4 296 340 258.4 340 212C340 165.6 302.4 128 256 128ZM256 264C227.2 264 204 240.8 204 212C204 183.2 227.2 160 256 160C284.8 160 308 183.2 308 212C308 240.8 284.8 264 256 264Z" fill="white"/>
  <path d="M256 296C192 296 140 348 140 412V440H372V412C372 348 320 296 256 296ZM340 408H172V412C172 365.6 209.6 328 256 328C302.4 328 340 365.6 340 412V408Z" fill="white"/>
</svg>
